<svg xmlns="http://www.w3.org/2000/svg" viewBox="0 0 200 200">
  <defs>
    <radialGradient id="avatarGrad" cx="35%" cy="30%" r="80%">
      <stop offset="0%" stop-color="#fff2f7"/>
      <stop offset="100%" stop-color="#f2a9c4"/>
    </radialGradient>
  </defs>
  <rect width="200" height="200" fill="url(#avatarGrad)"/>
  <g fill="none" stroke="#b8863c" stroke-width="2.5" stroke-linecap="round" opacity="0.9">
    <circle cx="100" cy="100" r="10" fill="#fffaf6" stroke="#b8863c"/>
    <path d="M100 90 C90 70 70 70 65 85 C62 95 75 100 100 90Z" fill="#fbd9e6"/>
    <path d="M100 90 C110 70 130 70 135 85 C138 95 125 100 100 90Z" fill="#fbd9e6"/>
    <path d="M100 90 C85 95 80 112 92 122 C100 128 105 112 100 90Z" fill="#fbd9e6"/>
    <path d="M100 90 C115 95 120 112 108 122 C100 128 95 112 100 90Z" fill="#fbd9e6"/>
  </g>
  <!-- gold sparkle accents -->
  <g fill="#b8863c" opacity="0.85">
    <path d="M40 45 L43 53 L51 56 L43 59 L40 67 L37 59 L29 56 L37 53 Z"/>
    <path d="M165 140 L167 146 L173 148 L167 150 L165 156 L163 150 L157 148 L163 146 Z"/>
  </g>
</svg>
